<?xml version="1.0" encoding="utf-8" standalone="no"?>
<!DOCTYPE svg PUBLIC "-//W3C//DTD SVG 1.1//EN"
  "http://www.w3.org/Graphics/SVG/1.1/DTD/svg11.dtd">
<svg xmlns:xlink="http://www.w3.org/1999/xlink" width="365.81pt" height="363.481897pt" viewBox="0 0 684 568.8" xmlns="http://www.w3.org/2000/svg" version="1.1" style="background: #ffffff">
 <rect width="100%" height="100%" fill="#ffffff"/>
 <metadata>
  <rdf:RDF xmlns:dc="http://purl.org/dc/elements/1.1/" xmlns:cc="http://creativecommons.org/ns#" xmlns:rdf="http://www.w3.org/1999/02/22-rdf-syntax-ns#">
   <cc:Work>
    <dc:type rdf:resource="http://purl.org/dc/dcmitype/StillImage"/>
    <dc:date>2025-11-17T22:07:30.363536</dc:date>
    <dc:format>image/svg+xml</dc:format>
    <dc:creator>
     <cc:Agent>
      <dc:title>Matplotlib v3.6.3, https://matplotlib.org/</dc:title>
     </cc:Agent>
    </dc:creator>
   </cc:Work>
  </rdf:RDF>
 </metadata>
 <defs>
  <style type="text/css">*{stroke-linejoin: round; stroke-linecap: butt}</style>
 </defs>
 <g id="figure_1">
  <g id="patch_1">
   <path d="M 0 568.8 
L 684 568.8 
L 684 0 
L 0 0 
z
" style="fill: #ffffff"/>
  </g>
  <g id="axes_1">
   <g id="patch_2">
    <circle cx="342" cy="99.6" r="16.632" clip-path="url(#p8ec07542df)" style="fill: none; stroke: #0000ff; stroke-width: 1.8"/>
   </g>
   <g id="patch_3">
    <circle cx="163.44" cy="192" r="16.632" clip-path="url(#p8ec07542df)" style="fill: none; stroke: #ff0000; stroke-width: 1.8"/>
   </g>
   <g id="patch_4">
    <circle cx="297.36" cy="192" r="16.632" clip-path="url(#p8ec07542df)" style="fill: none; stroke: #ff0000; stroke-width: 1.8"/>
   </g>
   <g id="patch_5">
    <circle cx="431.28" cy="192" r="16.632" clip-path="url(#p8ec07542df)" style="fill: none; stroke: #ff0000; stroke-width: 1.8"/>
   </g>
   <g id="patch_6">
    <circle cx="565.2" cy="192" r="16.632" clip-path="url(#p8ec07542df)" style="fill: none; stroke: #ff0000; stroke-width: 1.8"/>
   </g>
   <g id="patch_7">
    <circle cx="74.16" cy="302.88" r="16.632" clip-path="url(#p8ec07542df)" style="fill: none; stroke: #008000; stroke-width: 1.8"/>
   </g>
   <g id="patch_8">
    <circle cx="163.44" cy="302.88" r="16.632" clip-path="url(#p8ec07542df)" style="fill: none; stroke: #008000; stroke-width: 1.8"/>
   </g>
   <g id="patch_9">
    <circle cx="252.72" cy="302.88" r="16.632" clip-path="url(#p8ec07542df)" style="fill: none; stroke: #008000; stroke-width: 1.8"/>
   </g>
   <g id="patch_10">
    <circle cx="342" cy="302.88" r="16.632" clip-path="url(#p8ec07542df)" style="fill: none; stroke: #008000; stroke-width: 1.8"/>
   </g>
   <g id="patch_11">
    <circle cx="208.08" cy="469.2" r="16.632" clip-path="url(#p8ec07542df)" style="fill: none; stroke: #008000; stroke-width: 1.8"/>
   </g>
   <g id="patch_12">
    <circle cx="297.36" cy="469.2" r="16.632" clip-path="url(#p8ec07542df)" style="fill: none; stroke: #008000; stroke-width: 1.8"/>
   </g>
   <g id="patch_13">
    <circle cx="386.64" cy="469.2" r="16.632" clip-path="url(#p8ec07542df)" style="fill: none; stroke: #008000; stroke-width: 1.8"/>
   </g>
   <g id="patch_14">
    <circle cx="475.92" cy="469.2" r="16.632" clip-path="url(#p8ec07542df)" style="fill: none; stroke: #008000; stroke-width: 1.8"/>
   </g>
   <g id="line2d_1">
    <path d="M 342 116.232 
L 163.44 175.368 
" clip-path="url(#p8ec07542df)" style="fill: none; stroke: #000000; stroke-linecap: square"/>
   </g>
   <g id="line2d_2">
    <path d="M 342 116.232 
L 297.36 175.368 
" clip-path="url(#p8ec07542df)" style="fill: none; stroke: #000000; stroke-linecap: square"/>
   </g>
   <g id="line2d_3">
    <path d="M 342 116.232 
L 431.28 175.368 
" clip-path="url(#p8ec07542df)" style="fill: none; stroke: #000000; stroke-linecap: square"/>
   </g>
   <g id="line2d_4">
    <path d="M 342 116.232 
L 565.2 175.368 
" clip-path="url(#p8ec07542df)" style="fill: none; stroke: #000000; stroke-linecap: square"/>
   </g>
   <g id="line2d_5">
    <path d="M 163.44 208.632 
L 74.16 286.248 
" clip-path="url(#p8ec07542df)" style="fill: none; stroke: #000000; stroke-linecap: square"/>
   </g>
   <g id="line2d_6">
    <path d="M 163.44 208.632 
L 163.44 286.248 
" clip-path="url(#p8ec07542df)" style="fill: none; stroke: #000000; stroke-linecap: square"/>
   </g>
   <g id="line2d_7">
    <path d="M 163.44 208.632 
L 252.72 286.248 
" clip-path="url(#p8ec07542df)" style="fill: none; stroke: #000000; stroke-linecap: square"/>
   </g>
   <g id="line2d_8">
    <path d="M 163.44 208.632 
L 342 286.248 
" clip-path="url(#p8ec07542df)" style="fill: none; stroke: #000000; stroke-linecap: square"/>
   </g>
   <g id="line2d_9">
    <path d="M 342 319.512 
L 208.08 452.568 
" clip-path="url(#p8ec07542df)" style="fill: none; stroke: #000000; stroke-linecap: square"/>
   </g>
   <g id="line2d_10">
    <path d="M 342 319.512 
L 297.36 452.568 
" clip-path="url(#p8ec07542df)" style="fill: none; stroke: #000000; stroke-linecap: square"/>
   </g>
   <g id="line2d_11">
    <path d="M 342 319.512 
L 386.64 452.568 
" clip-path="url(#p8ec07542df)" style="fill: none; stroke: #000000; stroke-linecap: square"/>
   </g>
   <g id="line2d_12">
    <path d="M 342 319.512 
L 475.92 452.568 
" clip-path="url(#p8ec07542df)" style="fill: none; stroke: #000000; stroke-linecap: square"/>
   </g>
   <g id="text_1">
    <!-- root -->
    <g style="fill: #0000ff" transform="translate(330.975937 66.699258) scale(0.11 -0.11)">
     <defs>
      <path id="DejaVuSans-72" d="M 2631 2963 
Q 2534 3019 2420 3045 
Q 2306 3072 2169 3072 
Q 1681 3072 1420 2755 
Q 1159 2438 1159 1844 
L 1159 0 
L 581 0 
L 581 3500 
L 1159 3500 
L 1159 2956 
Q 1341 3275 1631 3429 
Q 1922 3584 2338 3584 
Q 2397 3584 2469 3576 
Q 2541 3569 2628 3553 
L 2631 2963 
z
" transform="scale(0.015625)"/>
      <path id="DejaVuSans-6f" d="M 1959 3097 
Q 1497 3097 1228 2736 
Q 959 2375 959 1747 
Q 959 1119 1226 758 
Q 1494 397 1959 397 
Q 2419 397 2687 759 
Q 2956 1122 2956 1747 
Q 2956 2369 2687 2733 
Q 2419 3097 1959 3097 
z
M 1959 3584 
Q 2709 3584 3137 3096 
Q 3566 2609 3566 1747 
Q 3566 888 3137 398 
Q 2709 -91 1959 -91 
Q 1206 -91 779 398 
Q 353 888 353 1747 
Q 353 2609 779 3096 
Q 1206 3584 1959 3584 
z
" transform="scale(0.015625)"/>
      <path id="DejaVuSans-74" d="M 1172 4494 
L 1172 3500 
L 2356 3500 
L 2356 3053 
L 1172 3053 
L 1172 1153 
Q 1172 725 1289 603 
Q 1406 481 1766 481 
L 2356 481 
L 2356 0 
L 1766 0 
Q 1100 0 847 248 
Q 594 497 594 1153 
L 594 3053 
L 172 3053 
L 172 3500 
L 594 3500 
L 594 4494 
L 1172 4494 
z
" transform="scale(0.015625)"/>
     </defs>
     <use xlink:href="#DejaVuSans-72"/>
     <use xlink:href="#DejaVuSans-6f" x="38.863281"/>
     <use xlink:href="#DejaVuSans-6f" x="100.044922"/>
     <use xlink:href="#DejaVuSans-74" x="161.226562"/>
    </g>
   </g>
   <g id="text_2">
    <!-- NW -->
    <g style="fill: #ff0000" transform="translate(153.887188 159.099258) scale(0.11 -0.11)">
     <defs>
      <path id="DejaVuSans-4e" d="M 628 4666 
L 1478 4666 
L 3547 763 
L 3547 4666 
L 4159 4666 
L 4159 0 
L 3309 0 
L 1241 3903 
L 1241 0 
L 628 0 
L 628 4666 
z
" transform="scale(0.015625)"/>
      <path id="DejaVuSans-57" d="M 213 4666 
L 850 4666 
L 1831 722 
L 2809 4666 
L 3519 4666 
L 4500 722 
L 5478 4666 
L 6119 4666 
L 4947 0 
L 4153 0 
L 3169 4050 
L 2175 0 
L 1381 0 
L 213 4666 
z
" transform="scale(0.015625)"/>
     </defs>
     <use xlink:href="#DejaVuSans-4e"/>
     <use xlink:href="#DejaVuSans-57" x="74.804688"/>
    </g>
   </g>
   <g id="text_3">
    <!-- NE -->
    <g style="fill: #ff0000" transform="translate(289.77 217.84914) scale(0.11 -0.11)">
     <defs>
      <path id="DejaVuSans-45" d="M 628 4666 
L 3578 4666 
L 3578 4134 
L 1259 4134 
L 1259 2753 
L 3481 2753 
L 3481 2222 
L 1259 2222 
L 1259 531 
L 3634 531 
L 3634 0 
L 628 0 
L 628 4666 
z
" transform="scale(0.015625)"/>
     </defs>
     <use xlink:href="#DejaVuSans-4e"/>
     <use xlink:href="#DejaVuSans-45" x="74.804688"/>
    </g>
   </g>
   <g id="text_4">
    <!-- SW -->
    <g style="fill: #ff0000" transform="translate(422.350234 217.84914) scale(0.11 -0.11)">
     <defs>
      <path id="DejaVuSans-53" d="M 3425 4513 
L 3425 3897 
Q 3066 4069 2747 4153 
Q 2428 4238 2131 4238 
Q 1616 4238 1336 4038 
Q 1056 3838 1056 3469 
Q 1056 3159 1242 3001 
Q 1428 2844 1947 2747 
L 2328 2669 
Q 3034 2534 3370 2195 
Q 3706 1856 3706 1288 
Q 3706 609 3251 259 
Q 2797 -91 1919 -91 
Q 1588 -91 1214 -16 
Q 841 59 441 206 
L 441 856 
Q 825 641 1194 531 
Q 1563 422 1919 422 
Q 2459 422 2753 634 
Q 3047 847 3047 1241 
Q 3047 1584 2836 1778 
Q 2625 1972 2144 2069 
L 1759 2144 
Q 1053 2284 737 2584 
Q 422 2884 422 3419 
Q 422 4038 858 4394 
Q 1294 4750 2059 4750 
Q 2388 4750 2728 4690 
Q 3069 4631 3425 4513 
z
" transform="scale(0.015625)"/>
     </defs>
     <use xlink:href="#DejaVuSans-53"/>
     <use xlink:href="#DejaVuSans-57" x="63.476562"/>
    </g>
   </g>
   <g id="text_5">
    <!-- SE -->
    <g style="fill: #ff0000" transform="translate(558.233047 217.84914) scale(0.11 -0.11)">
     <use xlink:href="#DejaVuSans-53"/>
     <use xlink:href="#DejaVuSans-45" x="63.476562"/>
    </g>
   </g>
   <g id="text_6">
    <!-- NW.NW -->
    <g style="fill: #008000" transform="translate(53.938906 328.72914) scale(0.11 -0.11)">
     <defs>
      <path id="DejaVuSans-2e" d="M 684 794 
L 1344 794 
L 1344 0 
L 684 0 
L 684 794 
z
" transform="scale(0.015625)"/>
     </defs>
     <use xlink:href="#DejaVuSans-4e"/>
     <use xlink:href="#DejaVuSans-57" x="74.804688"/>
     <use xlink:href="#DejaVuSans-2e" x="162.181641"/>
     <use xlink:href="#DejaVuSans-4e" x="193.96875"/>
     <use xlink:href="#DejaVuSans-57" x="268.773438"/>
    </g>
   </g>
   <g id="text_7">
    <!-- NW.NE -->
    <g style="fill: #008000" transform="translate(145.181719 328.72914) scale(0.11 -0.11)">
     <use xlink:href="#DejaVuSans-4e"/>
     <use xlink:href="#DejaVuSans-57" x="74.804688"/>
     <use xlink:href="#DejaVuSans-2e" x="162.181641"/>
     <use xlink:href="#DejaVuSans-4e" x="193.96875"/>
     <use xlink:href="#DejaVuSans-45" x="268.773438"/>
    </g>
   </g>
   <g id="text_8">
    <!-- NW.SW -->
    <g style="fill: #008000" transform="translate(233.121953 328.72914) scale(0.11 -0.11)">
     <use xlink:href="#DejaVuSans-4e"/>
     <use xlink:href="#DejaVuSans-57" x="74.804688"/>
     <use xlink:href="#DejaVuSans-2e" x="162.181641"/>
     <use xlink:href="#DejaVuSans-53" x="193.96875"/>
     <use xlink:href="#DejaVuSans-57" x="257.445312"/>
    </g>
   </g>
   <g id="text_9">
    <!-- NW.SE -->
    <g style="fill: #008000" transform="translate(324.364766 269.979258) scale(0.11 -0.11)">
     <use xlink:href="#DejaVuSans-4e"/>
     <use xlink:href="#DejaVuSans-57" x="74.804688"/>
     <use xlink:href="#DejaVuSans-2e" x="162.181641"/>
     <use xlink:href="#DejaVuSans-53" x="193.96875"/>
     <use xlink:href="#DejaVuSans-45" x="257.445312"/>
    </g>
   </g>
   <g id="text_10">
    <!-- NW.SE.NW -->
    <g style="fill: #008000" transform="translate(179.143984 495.04914) scale(0.11 -0.11)">
     <use xlink:href="#DejaVuSans-4e"/>
     <use xlink:href="#DejaVuSans-57" x="74.804688"/>
     <use xlink:href="#DejaVuSans-2e" x="162.181641"/>
     <use xlink:href="#DejaVuSans-53" x="193.96875"/>
     <use xlink:href="#DejaVuSans-45" x="257.445312"/>
     <use xlink:href="#DejaVuSans-2e" x="320.628906"/>
     <use xlink:href="#DejaVuSans-4e" x="352.416016"/>
     <use xlink:href="#DejaVuSans-57" x="427.220703"/>
    </g>
   </g>
   <g id="text_11">
    <!-- NW.SE.NE -->
    <g style="fill: #008000" transform="translate(270.386797 495.04914) scale(0.11 -0.11)">
     <use xlink:href="#DejaVuSans-4e"/>
     <use xlink:href="#DejaVuSans-57" x="74.804688"/>
     <use xlink:href="#DejaVuSans-2e" x="162.181641"/>
     <use xlink:href="#DejaVuSans-53" x="193.96875"/>
     <use xlink:href="#DejaVuSans-45" x="257.445312"/>
     <use xlink:href="#DejaVuSans-2e" x="320.628906"/>
     <use xlink:href="#DejaVuSans-4e" x="352.416016"/>
     <use xlink:href="#DejaVuSans-45" x="427.220703"/>
    </g>
   </g>
   <g id="text_12">
    <!-- NW.SE.SW -->
    <g style="fill: #008000" transform="translate(358.327031 495.04914) scale(0.11 -0.11)">
     <use xlink:href="#DejaVuSans-4e"/>
     <use xlink:href="#DejaVuSans-57" x="74.804688"/>
     <use xlink:href="#DejaVuSans-2e" x="162.181641"/>
     <use xlink:href="#DejaVuSans-53" x="193.96875"/>
     <use xlink:href="#DejaVuSans-45" x="257.445312"/>
     <use xlink:href="#DejaVuSans-2e" x="320.628906"/>
     <use xlink:href="#DejaVuSans-53" x="352.416016"/>
     <use xlink:href="#DejaVuSans-57" x="415.892578"/>
    </g>
   </g>
   <g id="text_13">
    <!-- NW.SE.SE -->
    <g style="fill: #008000" transform="translate(449.569844 495.04914) scale(0.11 -0.11)">
     <use xlink:href="#DejaVuSans-4e"/>
     <use xlink:href="#DejaVuSans-57" x="74.804688"/>
     <use xlink:href="#DejaVuSans-2e" x="162.181641"/>
     <use xlink:href="#DejaVuSans-53" x="193.96875"/>
     <use xlink:href="#DejaVuSans-45" x="257.445312"/>
     <use xlink:href="#DejaVuSans-2e" x="320.628906"/>
     <use xlink:href="#DejaVuSans-53" x="352.416016"/>
     <use xlink:href="#DejaVuSans-45" x="415.892578"/>
    </g>
   </g>
  </g>
 </g>
 <defs>
  <clipPath id="p8ec07542df">
   <rect x="7.2" y="7.2" width="669.6" height="554.4"/>
  </clipPath>
 </defs>
</svg>
